<svg width="20" height="16" viewBox="0 0 20 16" fill="none" xmlns="http://www.w3.org/2000/svg">
<path d="M20 0C19.22 0.462971 17.655 1.09393 16.735 1.27592C16.708 1.28292 16.686 1.29192 16.66 1.29892C15.847 0.496969 14.733 0 13.5 0C11.015 0 9 2.01487 9 4.49972C9 4.63071 8.989 4.8717 9 4.99969C5.647 4.99969 3.095 3.2438 1.265 0.999938C1.066 1.49991 0.979 2.28986 0.979 3.03181C0.979 4.43272 2.074 5.80864 3.779 6.66158C3.465 6.74258 3.119 6.80058 2.759 6.80058C2.178 6.80058 1.563 6.64758 1 6.18361C1 6.20061 1 6.21661 1 6.23461C1 8.19249 3.078 9.5254 4.926 9.89638C4.551 10.1174 3.795 10.1394 3.426 10.1394C3.166 10.1394 2.246 10.0204 2 9.97438C2.514 11.5793 4.368 12.4812 6.135 12.5132C4.753 13.5972 3.794 13.9991 0.964 13.9991H0C1.788 15.1451 4.065 16 6.347 16C13.777 16 18 10.3374 18 4.99969C18 4.91369 17.998 4.7337 17.995 4.55272C17.995 4.53472 18 4.51772 18 4.49972C18 4.47272 17.992 4.44672 17.992 4.41972C17.989 4.28373 17.986 4.15674 17.983 4.09074C18.773 3.52078 19.458 2.80982 20 1.99988C19.275 2.32186 18.497 2.53784 17.68 2.63584C18.514 2.13587 19.699 0.943941 20 0Z" fill="white"/>
</svg>
